<svg data-v-fde0c5aa="" xmlns="http://www.w3.org/2000/svg" viewBox="0 0 300 300" class="iconLeft"><!----><defs data-v-fde0c5aa=""><linearGradient data-v-fde0c5aa="" gradientTransform="rotate(25)" id="caeafd93-5e0d-4a22-9c12-0bbc3c18891b" x1="0%" y1="0%" x2="100%" y2="0%"><stop data-v-fde0c5aa="" offset="0%" stop-color="#462AB9" stop-opacity="1"></stop><stop data-v-fde0c5aa="" offset="100%" stop-color="#737048" stop-opacity="1"></stop></linearGradient></defs><rect data-v-fde0c5aa="" fill="url(#caeafd93-5e0d-4a22-9c12-0bbc3c18891b)" x="0" y="0" width="300px" height="300px" class="logo-background-square"></rect><defs data-v-fde0c5aa=""><!----></defs><g data-v-fde0c5aa="" id="b4a4d9c3-9a8f-42fd-af0c-76852724be83" fill="#ffffff" transform="matrix(2.9729102450825624,0,0,2.9729102450825624,115.96250178432665,128.68423260714596)"><path d="M4.47 8.55L6.82 8.55L7.22 10.50L11.31 10.50L8.20 0.49L3.08 0.49L0.08 10.50L4.07 10.50ZM5.88 4.07L6.29 6.02L4.98 6.02L5.39 4.07L5.63 2.91ZM17.70 5.56L17.70 2.66L17.29 2.66C15.90 2.66 15.18 3.40 15.01 4.70C14.95 3.98 14.88 3.28 14.83 2.81L11.83 2.81C11.86 3.32 11.89 4.26 11.89 4.75L11.89 10.50L15.44 10.50L15.44 7.14C15.44 5.98 16.17 5.53 17.28 5.53C17.28 5.53 17.49 5.53 17.70 5.56ZM17.84 5.15L19.01 5.15L19.01 7.99C19.01 9.09 19.61 10.50 21.67 10.50C22.54 10.50 23.28 10.50 23.88 10.44L23.88 7.69L22.85 7.69C22.50 7.69 22.32 7.53 22.32 7.14L22.32 5.15L23.88 5.15L23.88 2.81L22.32 2.81L22.32 0.49L19.10 0.49L19.05 2.81L17.84 2.81ZM29.50 6.55C29.50 7.83 29.37 8.37 28.84 8.37C28.29 8.37 28.14 7.83 28.14 6.54C28.14 5.29 28.34 4.93 28.81 4.93C29.26 4.93 29.50 5.29 29.50 6.55ZM33.00 6.61C33.00 4.13 31.65 2.66 28.81 2.66C26.03 2.66 24.67 4.16 24.67 6.61C24.67 8.96 25.91 10.64 28.84 10.64C31.78 10.64 33.00 8.99 33.00 6.61ZM39.73 5.56L39.73 2.66L39.33 2.66C37.94 2.66 37.21 3.40 37.04 4.70C36.99 3.98 36.92 3.28 36.86 2.81L33.87 2.81C33.89 3.32 33.92 4.26 33.92 4.75L33.92 10.50L37.48 10.50L37.48 7.14C37.48 5.98 38.21 5.53 39.31 5.53C39.31 5.53 39.52 5.53 39.73 5.56ZM42.50 13.85C44.39 13.85 45.29 12.92 46.05 10.50L48.45 2.81L45.07 2.81L44.73 4.84C44.51 6.16 44.25 7.77 44.25 7.77C44.25 7.77 44.00 6.15 43.76 4.86L43.40 2.81L40.01 2.81L42.76 10.91C42.69 11.19 42.62 11.42 42.14 11.42L40.63 11.42L40.63 13.85Z"></path></g><defs data-v-fde0c5aa=""><!----></defs><g data-v-fde0c5aa="" id="08b69806-dd4f-4110-ad9f-057bba55c114" stroke="none" fill="#ffffff" transform="matrix(0.7022437396826308,0,0,0.7022437396826308,35.08022833662803,115.54840469871799)"><path d="M60.3 73.2c-2.9-.7-5.9 1.1-6.7 4l-.1.3c-1.2 5.3-4.4 9.9-8.9 12.9.7.3 1.5.5 2.2.7 7.8 1.8 15.6-3 17.6-10.6l.1-.4c.8-3.2-1.1-6.2-4.2-6.9zM53.5 60.5c1.4-.2 2.9-.2 4.7 0l1.2.2.2-2.1v-.1s0-.3.2-1l.4-1.3-1.3-.2c-1.3-.2-2.5-.3-3.6-.3-2.4 0-4.6.4-6.7 1.3-6.1 2.6-7.8 9.3-9.3 15.1-.5 1.8-.9 3.6-1.5 5.1-1.6 4.3-5 6.7-9.3 6.7-1.1 0-2.3-.2-3.5-.5-5.2-1.4-8.8-6.1-11.1-9.6-4.3-8.7-1.1-18.5 2.6-27.8 3.8-9.7 8.3-19.6 17.4-25 6.9-4.1 16.5-4.4 28.2-.8 5.4 1.6 10.1 3.8 13.9 6.5l1 .7 2.4-4.1-.9-.6c-4.9-3.4-11-6.1-18.5-8-10.1-2.6-19.6-2.1-27.3 1.6-9.1 4.4-14.3 13.7-18.2 22.3C8.9 51 3.8 64.1 9.5 75.7c.1.2.1.3.2.4.1.1.2.3.3.4 3.7 5.6 10 12.3 18.4 12.3.6 0 1.2 0 1.8-.1C40 87.6 42.4 79 44.5 71.5l.4-1.4c1.6-5.9 4.3-8.8 8.6-9.6zM93.1 35.3c-1.2-1.9-2.7-3.7-4.5-5.5l-1.3-1.3-1.9 4.8.6.7c3.3 3.5 5.3 7.5 6.1 11.9.8 4.7-.8 9.6-4.4 13.2-2.1 2.1-4.8 3.1-8.4 3.1-1.2 0-2.6-.1-4-.4l-.9-.2-.4.9c-.3.7-.7 1.5-1 2.1l-.8 1.4 1.6.3c1.8.4 3.6.5 5.2.5 6 0 10.8-2.4 14.4-7.1 5.7-7.5 3.9-17.9-.3-24.4zM72.7 61.3l14.5-36.9 1.2-3.1 5.2-13.1c.1-.1 0-.3-.1-.4L92 6.7c-.2-.1-.4-.1-.5.2l-6.2 10.4-1.5 2.6-21.3 35.6c-.3.5-.8 1.5-1.1 2.4-.2.7-.4 1.3-.5 1.8l-.2 1-1.5 7.6v.1c-.1 1 .5 2.3 1.3 2.6l3.2 1.8c.8.4 1.9.2 2.6-.6v-.1l3.8-5.9c.2-.2.5-.8.9-1.5.5-.9 1-2 1.3-2.8.2-.1.3-.4.4-.6z"></path><circle cx="25.1" cy="67.9" r="5.9"></circle><circle cx="30.9" cy="48.3" r="5.9"></circle><circle cx="42.3" cy="31.4" r="5.9"></circle><circle cx="61.4" cy="31.4" r="5.9"></circle></g><!----></svg>