<svg data-v-fde0c5aa="" xmlns="http://www.w3.org/2000/svg" viewBox="0 0 300 300" class="font"><!----><defs data-v-fde0c5aa=""><linearGradient data-v-fde0c5aa="" gradientTransform="rotate(25)" id="7fbee0bf-8696-41cb-ad7c-5848add9cab5" x1="0%" y1="0%" x2="100%" y2="0%"><stop data-v-fde0c5aa="" offset="0%" stop-color="#462AB9" stop-opacity="1"></stop><stop data-v-fde0c5aa="" offset="100%" stop-color="#737048" stop-opacity="1"></stop></linearGradient></defs><rect data-v-fde0c5aa="" fill="url(#7fbee0bf-8696-41cb-ad7c-5848add9cab5)" x="0" y="0" width="300px" height="300px" class="logo-background-square"></rect><defs data-v-fde0c5aa=""><!----></defs><g data-v-fde0c5aa="" id="6e5b75ee-b774-452f-9a80-495fe8c7e1c5" fill="#ffffff" transform="matrix(4.54827382381808,0,0,4.54827382381808,39.63613806834022,117.38887525182562)"><path d="M4.47 8.55L6.82 8.55L7.22 10.50L11.31 10.50L8.20 0.49L3.08 0.49L0.08 10.50L4.07 10.50ZM5.88 4.07L6.29 6.02L4.98 6.02L5.39 4.07L5.63 2.91ZM17.70 5.56L17.70 2.66L17.29 2.66C15.90 2.66 15.18 3.40 15.01 4.70C14.95 3.98 14.88 3.28 14.83 2.81L11.83 2.81C11.86 3.32 11.89 4.26 11.89 4.75L11.89 10.50L15.44 10.50L15.44 7.14C15.44 5.98 16.17 5.53 17.28 5.53C17.28 5.53 17.49 5.53 17.70 5.56ZM17.84 5.15L19.01 5.15L19.01 7.99C19.01 9.09 19.61 10.50 21.67 10.50C22.54 10.50 23.28 10.50 23.88 10.44L23.88 7.69L22.85 7.69C22.50 7.69 22.32 7.53 22.32 7.14L22.32 5.15L23.88 5.15L23.88 2.81L22.32 2.81L22.32 0.49L19.10 0.49L19.05 2.81L17.84 2.81ZM29.50 6.55C29.50 7.83 29.37 8.37 28.84 8.37C28.29 8.37 28.14 7.83 28.14 6.54C28.14 5.29 28.34 4.93 28.81 4.93C29.26 4.93 29.50 5.29 29.50 6.55ZM33.00 6.61C33.00 4.13 31.65 2.66 28.81 2.66C26.03 2.66 24.67 4.16 24.67 6.61C24.67 8.96 25.91 10.64 28.84 10.64C31.78 10.64 33.00 8.99 33.00 6.61ZM39.73 5.56L39.73 2.66L39.33 2.66C37.94 2.66 37.21 3.40 37.04 4.70C36.99 3.98 36.92 3.28 36.86 2.81L33.87 2.81C33.89 3.32 33.92 4.26 33.92 4.75L33.92 10.50L37.48 10.50L37.48 7.14C37.48 5.98 38.21 5.53 39.31 5.53C39.31 5.53 39.52 5.53 39.73 5.56ZM42.50 13.85C44.39 13.85 45.29 12.92 46.05 10.50L48.45 2.81L45.07 2.81L44.73 4.84C44.51 6.16 44.25 7.77 44.25 7.77C44.25 7.77 44.00 6.15 43.76 4.86L43.40 2.81L40.01 2.81L42.76 10.91C42.69 11.19 42.62 11.42 42.14 11.42L40.63 11.42L40.63 13.85Z"></path></g><!----><!----></svg>